<?xml version="1.0" encoding="UTF-8"?>
<svg xmlns="http://www.w3.org/2000/svg" xmlns:xlink="http://www.w3.org/1999/xlink" width="611.999983pt" height="791.999983pt" viewBox="0 0 611.999983 791.999983" version="1.2">
<defs>
<filter id="alpha" filterUnits="objectBoundingBox" x="0%" y="0%" width="100%" height="100%">
  <feColorMatrix type="matrix" in="SourceGraphic" values="0 0 0 0 1 0 0 0 0 1 0 0 0 0 1 0 0 0 1 0"/>
</filter>
<mask id="mask0">
  <g filter="url(#alpha)">
<rect x="0" y="0" width="611.999983" height="791.999983" style="fill:rgb(0%,0%,0%);fill-opacity:0.149994;stroke:none;"/>
  </g>
</mask>
<clipPath id="clip2">
  <path d="M 0.378906 0.347656 L 443.621094 0.347656 L 443.621094 277.652344 L 0.378906 277.652344 Z M 0.378906 0.347656 "/>
</clipPath>
<clipPath id="clip1">
  <rect width="444" height="278"/>
</clipPath>
<g id="surface2672" clip-path="url(#clip1)">
<g clip-path="url(#clip2)" clip-rule="nonzero">
<path style=" stroke:none;fill-rule:nonzero;fill:rgb(11.364746%,30.601501%,61.853027%);fill-opacity:1;" d="M 341.632812 212.46875 L 385.613281 212.46875 C 364.953125 228.726562 337.644531 241.824219 306.09375 250.308594 C 320.207031 239.996094 332.253906 227.136719 341.632812 212.46875 M 58.386719 212.46875 L 102.367188 212.46875 C 111.746094 227.140625 123.792969 240 137.90625 250.308594 C 106.355469 241.824219 79.042969 228.726562 58.386719 212.46875 M 102.363281 65.535156 L 58.382812 65.535156 C 79.039062 49.277344 106.355469 36.175781 137.90625 27.691406 C 123.792969 38 111.742188 50.863281 102.363281 65.535156 M 385.617188 65.535156 L 341.636719 65.535156 C 332.257812 50.863281 320.207031 38 306.09375 27.691406 C 337.644531 36.175781 364.957031 49.277344 385.617188 65.535156 M 362.945312 130.71875 C 361.90625 113.480469 357.628906 97.085938 350.726562 82.097656 L 403.34375 82.097656 C 416.414062 96.792969 424.589844 113.253906 426.570312 130.71875 Z M 230.285156 195.90625 L 230.285156 147.285156 L 346.316406 147.285156 C 345.117188 164.746094 340.164062 181.207031 332.222656 195.90625 Z M 230.285156 212.46875 L 321.46875 212.46875 C 300.265625 239.953125 267.480469 258.386719 230.285156 260.789062 Z M 97.683594 147.285156 L 213.710938 147.285156 L 213.710938 195.90625 L 111.777344 195.90625 C 103.835938 181.207031 98.882812 164.746094 97.683594 147.285156 M 122.527344 65.535156 C 143.730469 38.046875 176.515625 19.613281 213.710938 17.210938 L 213.710938 65.535156 Z M 213.710938 82.097656 L 213.710938 130.71875 L 97.683594 130.71875 C 98.882812 113.261719 103.835938 96.796875 111.777344 82.097656 Z M 332.226562 82.097656 C 340.164062 96.796875 345.117188 113.261719 346.316406 130.71875 L 230.285156 130.71875 L 230.285156 82.097656 Z M 321.472656 65.535156 L 230.285156 65.535156 L 230.285156 17.210938 C 267.480469 19.613281 300.265625 38.046875 321.472656 65.535156 M 93.277344 82.097656 C 86.371094 97.085938 82.09375 113.480469 81.054688 130.71875 L 17.433594 130.71875 C 19.410156 113.253906 27.585938 96.792969 40.65625 82.097656 Z M 40.65625 195.90625 C 27.585938 181.210938 19.410156 164.746094 17.433594 147.285156 L 81.054688 147.285156 C 82.09375 164.523438 86.375 180.917969 93.277344 195.90625 Z M 122.527344 212.46875 L 213.710938 212.46875 L 213.710938 260.789062 C 176.515625 258.386719 143.734375 239.953125 122.527344 212.46875 M 350.726562 195.90625 C 357.621094 180.917969 361.90625 164.527344 362.945312 147.285156 L 426.570312 147.285156 C 424.589844 164.746094 416.414062 181.210938 403.34375 195.90625 Z M 221.996094 0.347656 C 99.792969 0.347656 0.378906 62.546875 0.378906 139 C 0.378906 215.453125 99.792969 277.652344 221.996094 277.652344 C 344.207031 277.652344 443.621094 215.453125 443.621094 139 C 443.621094 62.546875 344.207031 0.347656 221.996094 0.347656 "/>
</g>
</g>
</defs>
<g id="surface2400">
<use xlink:href="#surface2672" transform="matrix(1,0,0,1,84,257)" mask="url(#mask0)"/>
<path style=" stroke:none;fill-rule:nonzero;fill:rgb(11.364746%,30.601501%,61.853027%);fill-opacity:1;" d="M 117.175781 488.863281 C 115.855469 490.449219 115.519531 492.207031 116.742188 493.222656 L 116.761719 493.242188 C 117.90625 494.199219 119.550781 493.660156 120.949219 491.980469 C 122.097656 490.609375 122.742188 488.753906 121.429688 487.652344 C 120.050781 486.507812 118.339844 487.472656 117.175781 488.863281 M 213.871094 539.722656 C 213.625 540.660156 214.132812 541.28125 214.949219 541.492188 C 215.839844 541.722656 216.765625 541.328125 217.203125 540.640625 C 217.296875 540.464844 217.378906 540.253906 217.4375 540.039062 L 217.769531 538.765625 C 215.847656 538.261719 214.238281 538.328125 213.871094 539.722656 M 199.09375 528.925781 C 197.558594 528.421875 196.488281 529.605469 196.082031 530.519531 L 200.328125 531.925781 C 200.609375 531.074219 200.71875 529.464844 199.09375 528.925781 M 469.921875 502.667969 C 468.40625 503.625 468.804688 505.550781 469.78125 507.082031 C 470.882812 508.824219 472.457031 509.675781 473.796875 508.828125 L 473.820312 508.8125 C 475.078125 508.011719 475.070312 506.285156 473.894531 504.4375 C 472.941406 502.925781 471.367188 501.75 469.921875 502.667969 M 160.765625 513.050781 C 159.324219 512.3125 158.082031 513.324219 157.539062 514.164062 L 161.523438 516.203125 C 161.933594 515.402344 162.289062 513.832031 160.765625 513.050781 M 441.054688 520.96875 C 440.964844 520.761719 440.84375 520.546875 440.707031 520.359375 C 440.054688 519.558594 439.125 519.234375 438.167969 519.660156 C 436.898438 520.21875 436.398438 521.800781 437.289062 523.816406 C 438.019531 525.480469 439.410156 526.417969 440.84375 525.785156 C 441.753906 525.382812 442.199219 524.480469 442.074219 523.585938 C 442.042969 523.273438 441.90625 522.898438 441.777344 522.601562 Z M 246.855469 541.027344 C 245.136719 540.746094 244.027344 542.121094 243.714844 544.007812 C 243.378906 546.019531 244.171875 547.460938 245.71875 547.714844 C 246.796875 547.894531 247.800781 547.304688 248.199219 546.289062 C 248.285156 546.050781 248.359375 545.761719 248.410156 545.46875 L 248.667969 543.898438 C 248.707031 543.675781 248.746094 543.433594 248.734375 543.207031 C 248.679688 542.164062 248.007812 541.21875 246.855469 541.027344 M 319.464844 545.398438 C 317.675781 545.464844 317.042969 547.328125 317.109375 549.140625 C 317.1875 551.203125 318.113281 552.730469 319.703125 552.675781 L 319.730469 552.675781 C 321.21875 552.621094 322.082031 551.125 322.003906 548.9375 C 321.941406 547.152344 321.179688 545.339844 319.464844 545.398438 M 376.777344 538.457031 C 375.195312 538.777344 374.851562 540.339844 374.949219 541.335938 L 379.332031 540.449219 C 379.15625 539.574219 378.457031 538.121094 376.777344 538.457031 M 343.566406 543.503906 C 341.957031 543.667969 341.46875 545.191406 341.46875 546.191406 L 345.917969 545.734375 C 345.828125 544.84375 345.269531 543.328125 343.566406 543.503906 M 267.929688 539.328125 C 267.019531 539.230469 266.492188 539.226562 266.210938 539.273438 L 265.734375 543.84375 L 267.214844 544 C 269.097656 544.195312 270.304688 543.375 270.457031 541.917969 C 270.613281 540.410156 269.660156 539.507812 267.929688 539.328125 M 282.691406 544.683594 C 281.078125 544.582031 280.339844 546.007812 280.179688 546.992188 L 284.644531 547.273438 C 284.699219 546.382812 284.402344 544.796875 282.691406 544.683594 M 497.976562 480.808594 C 496.796875 481.914062 497.324219 483.425781 497.933594 484.21875 L 501.199219 481.164062 C 500.582031 480.507812 499.226562 479.636719 497.976562 480.808594 M 106.816406 477.1875 L 109.972656 480.359375 C 110.605469 479.726562 111.4375 478.34375 110.226562 477.128906 C 109.085938 475.980469 107.589844 476.558594 106.816406 477.1875 M 515.199219 477.792969 C 514.375 478.691406 513.382812 479.164062 512.503906 479.203125 C 511.503906 479.234375 510.40625 478.707031 509.136719 477.550781 L 505.441406 474.191406 L 504.359375 475.386719 L 502.292969 473.515625 L 503.382812 472.320312 L 501.691406 470.785156 L 503.425781 467.359375 L 505.875 469.582031 L 507.699219 467.578125 L 509.757812 469.449219 L 507.933594 471.453125 L 511.203125 474.429688 C 512.285156 475.417969 513.035156 475.589844 513.789062 474.761719 C 514.140625 474.378906 514.289062 474.175781 514.464844 473.871094 L 516.597656 475.773438 C 516.40625 476.242188 515.902344 477.019531 515.199219 477.792969 M 505.335938 487.871094 C 502.328125 490.6875 498.976562 490.5625 496.359375 487.769531 C 494.25 485.519531 493.335938 481.714844 496.402344 478.84375 C 499.269531 476.160156 502.445312 477.371094 504.503906 479.5625 C 504.945312 480.035156 505.277344 480.503906 505.445312 480.757812 L 499.71875 486.089844 C 500.898438 487.164062 502.53125 486.652344 503.816406 485.449219 C 504.757812 484.5625 505.402344 483.722656 505.90625 482.773438 L 508.019531 484.300781 C 507.472656 485.53125 506.53125 486.75 505.335938 487.871094 M 494.230469 497.230469 L 486.519531 487.847656 L 489.4375 485.449219 L 497.148438 494.835938 Z M 488.824219 501.769531 C 485.664062 504.09375 482.214844 503.640625 479.945312 500.558594 C 477.84375 497.699219 478.082031 493.914062 481.726562 491.234375 C 482.527344 490.644531 483.507812 490.136719 484.324219 489.90625 L 485.503906 492.519531 C 485.027344 492.628906 484.386719 492.882812 483.585938 493.472656 C 481.984375 494.648438 481.78125 496.554688 482.984375 498.144531 C 484.304688 499.945312 486.214844 500.019531 487.695312 498.933594 C 488.414062 498.402344 488.886719 497.871094 489.203125 497.332031 L 491.207031 499.308594 C 490.859375 499.964844 489.988281 500.917969 488.824219 501.769531 M 475.226562 511.128906 L 475.207031 511.136719 C 472.207031 513.042969 468.648438 512.535156 466.542969 509.21875 C 464.441406 505.902344 465.28125 502.402344 468.59375 500.300781 C 471.722656 498.316406 475.191406 499.144531 477.160156 502.253906 C 479.53125 505.984375 477.957031 509.398438 475.226562 511.128906 M 460.636719 519.652344 C 458.953125 520.566406 457.046875 521.007812 455.964844 521 L 455.160156 517.902344 C 456.285156 517.886719 457.933594 517.589844 459.351562 516.816406 C 460.878906 515.988281 461.34375 514.917969 460.8125 513.933594 C 460.320312 513.039062 459.328125 512.871094 457.230469 513.21875 C 454.308594 513.675781 451.957031 513.199219 450.78125 511.035156 C 449.417969 508.523438 450.507812 505.472656 453.957031 503.601562 C 455.640625 502.691406 457.019531 502.367188 458.117188 502.304688 L 458.824219 505.375 C 458.097656 505.398438 456.804688 505.5625 455.382812 506.335938 C 453.945312 507.117188 453.613281 508.171875 454.015625 508.914062 C 454.523438 509.851562 455.558594 509.832031 457.882812 509.527344 C 461 509.082031 462.9375 509.78125 464.074219 511.878906 C 465.417969 514.34375 464.675781 517.460938 460.636719 519.652344 M 447.203125 530.175781 C 446.457031 531.753906 444.941406 532.800781 443.300781 533.523438 C 441.820312 534.175781 440.171875 534.550781 438.929688 534.449219 L 438.449219 531.507812 C 439.335938 531.605469 440.730469 531.507812 442.046875 530.925781 C 443.6875 530.207031 444.554688 528.792969 443.644531 526.722656 L 443.332031 526.015625 L 443.289062 526.039062 C 443.03125 527.234375 442.191406 528.230469 440.917969 528.792969 C 438.167969 530.003906 435.230469 528.636719 433.828125 525.453125 C 432.246094 521.859375 433.539062 518.578125 436.289062 517.363281 C 437.816406 516.691406 439.058594 516.929688 440.03125 517.589844 L 440.074219 517.574219 L 439.609375 516.203125 L 442.609375 514.882812 C 442.886719 515.628906 443.25 516.582031 443.980469 518.238281 L 446.703125 524.425781 C 447.644531 526.558594 447.984375 528.503906 447.203125 530.175781 M 428.960938 533.773438 L 426.605469 527.46875 C 426.058594 526.003906 425.167969 525.191406 423.890625 525.671875 C 422.914062 526.035156 422.585938 526.925781 422.574219 527.675781 C 422.566406 527.941406 422.660156 528.277344 422.78125 528.601562 L 425.238281 535.167969 L 421.699219 536.488281 L 418.804688 528.738281 C 418.277344 527.316406 417.785156 526.148438 417.355469 525.140625 L 420.425781 523.996094 L 421.183594 525.515625 L 421.25 525.492188 C 421.4375 524.574219 422.167969 523.050781 424.078125 522.335938 C 426.40625 521.46875 428.730469 522.375 429.984375 525.722656 L 432.5 532.453125 Z M 414.179688 538.96875 L 410.375 527.425781 L 413.964844 526.25 L 417.765625 537.789062 Z M 406.238281 541.691406 C 404.707031 542.140625 403.246094 542.1875 402.226562 541.972656 L 402.109375 539.210938 C 402.894531 539.417969 404.410156 539.460938 405.480469 539.144531 C 406.578125 538.816406 406.925781 538.328125 406.75 537.734375 C 406.566406 537.117188 406.125 536.933594 404.65625 536.875 C 401.996094 536.804688 400.667969 535.75 400.292969 534.382812 C 399.644531 532.1875 401.015625 530 403.898438 529.144531 C 405.257812 528.746094 406.546875 528.726562 407.367188 528.871094 L 407.484375 531.53125 C 406.878906 531.425781 405.742188 531.347656 404.765625 531.636719 C 403.882812 531.894531 403.492188 532.402344 403.65625 532.972656 C 403.828125 533.546875 404.363281 533.699219 405.941406 533.773438 C 408.375 533.859375 409.617188 534.734375 410.144531 536.421875 C 410.789062 538.609375 409.570312 540.710938 406.238281 541.691406 M 395.203125 544.441406 L 393.570312 537.910156 C 393.195312 536.386719 392.40625 535.484375 391.082031 535.8125 C 390.070312 536.066406 389.640625 536.917969 389.542969 537.65625 C 389.507812 537.921875 389.566406 538.265625 389.648438 538.601562 L 391.34375 545.398438 L 387.679688 546.3125 L 385.679688 538.285156 C 385.316406 536.816406 384.957031 535.597656 384.648438 534.550781 L 387.828125 533.757812 L 388.40625 535.351562 L 388.476562 535.335938 C 388.769531 534.441406 389.664062 533.015625 391.644531 532.523438 C 394.054688 531.925781 396.265625 533.089844 397.128906 536.558594 L 398.863281 543.527344 Z M 379.332031 548.332031 C 375.285156 549.148438 372.5 547.277344 371.746094 543.527344 C 371.132812 540.507812 372.359375 536.789062 376.476562 535.957031 C 380.320312 535.179688 382.386719 537.882812 382.984375 540.828125 C 383.113281 541.460938 383.152344 542.035156 383.164062 542.339844 L 375.484375 543.859375 C 375.921875 545.394531 377.578125 545.824219 379.3125 545.472656 C 380.574219 545.21875 381.5625 544.84375 382.492188 544.296875 L 383.488281 546.707031 C 382.371094 547.464844 380.9375 548.007812 379.332031 548.332031 M 363.210938 551.257812 C 361.324219 551.554688 359.378906 551.335938 358.363281 550.96875 L 358.636719 547.78125 C 359.703125 548.140625 361.351562 548.410156 362.949219 548.152344 C 364.664062 547.882812 365.460938 547.023438 365.285156 545.921875 C 365.125 544.917969 364.242188 544.425781 362.144531 544.054688 C 359.242188 543.507812 357.1875 542.277344 356.800781 539.847656 C 356.355469 537.027344 358.394531 534.515625 362.269531 533.898438 C 364.160156 533.597656 365.570312 533.753906 366.625 534.0625 L 366.265625 537.1875 C 365.574219 536.972656 364.300781 536.699219 362.703125 536.949219 C 361.085938 537.207031 360.421875 538.09375 360.550781 538.925781 C 360.722656 539.980469 361.703125 540.304688 363.992188 540.796875 C 367.085938 541.414062 368.675781 542.71875 369.050781 545.074219 C 369.488281 547.847656 367.753906 550.539062 363.210938 551.257812 M 349.542969 547.984375 L 341.753906 548.757812 C 342.042969 550.328125 343.652344 550.914062 345.40625 550.730469 C 346.695312 550.601562 347.710938 550.320312 348.691406 549.871094 L 349.449219 552.367188 C 348.261719 553.007812 346.78125 553.414062 345.148438 553.582031 C 341.046875 554.003906 338.457031 551.867188 338.0625 548.0625 C 337.753906 545 339.328125 541.414062 343.507812 540.984375 C 347.414062 540.589844 349.207031 543.472656 349.515625 546.464844 C 349.578125 547.105469 349.566406 547.683594 349.542969 547.984375 M 333.894531 554.605469 C 332.679688 554.695312 331.636719 554.34375 330.972656 553.765625 C 330.226562 553.097656 329.796875 551.957031 329.679688 550.25 L 329.328125 545.265625 L 327.714844 545.378906 L 327.523438 542.601562 L 329.136719 542.492188 L 328.972656 540.210938 L 332.597656 538.933594 L 332.828125 542.230469 L 335.527344 542.042969 L 335.722656 544.816406 L 333.023438 545.007812 L 333.328125 549.417969 C 333.433594 550.882812 333.851562 551.523438 334.964844 551.445312 C 335.488281 551.410156 335.734375 551.367188 336.074219 551.269531 L 336.300781 554.117188 C 335.839844 554.324219 334.9375 554.535156 333.894531 554.605469 M 319.777344 555.382812 L 319.746094 555.382812 C 316.195312 555.511719 313.378906 553.277344 313.238281 549.355469 C 313.097656 545.433594 315.585938 542.832031 319.515625 542.6875 C 323.214844 542.554688 325.792969 545.023438 325.925781 548.699219 C 326.082031 553.117188 323.003906 555.265625 319.777344 555.382812 M 309.640625 555.449219 L 305.960938 555.394531 L 306.054688 548.8125 C 306.082031 547.050781 305.527344 546.023438 304.308594 546.007812 C 303.410156 545.992188 302.804688 546.582031 302.523438 547.296875 C 302.445312 547.566406 302.390625 547.941406 302.386719 548.234375 L 302.28125 555.34375 L 298.601562 555.289062 L 298.703125 548.480469 C 298.722656 546.96875 298.195312 545.917969 296.976562 545.898438 C 296.003906 545.882812 295.421875 546.621094 295.191406 547.214844 C 295.0625 547.507812 295.03125 547.855469 295.027344 548.179688 L 294.925781 555.234375 L 291.242188 555.183594 L 291.363281 546.910156 C 291.386719 545.394531 291.355469 544.128906 291.320312 543.035156 L 294.527344 543.078125 L 294.652344 544.746094 L 294.730469 544.746094 C 295.265625 543.960938 296.371094 542.835938 298.4375 542.863281 C 300.023438 542.882812 301.234375 543.722656 301.738281 545 L 301.785156 545 C 302.269531 544.359375 302.796875 543.871094 303.398438 543.535156 C 304.074219 543.167969 304.824219 542.957031 305.71875 542.96875 C 308.054688 543.003906 309.796875 544.671875 309.742188 548.296875 Z M 287.847656 550.09375 L 280.035156 549.570312 C 280.0625 551.164062 281.546875 552.007812 283.3125 552.121094 C 284.601562 552.203125 285.65625 552.09375 286.695312 551.8125 L 287.027344 554.394531 C 285.75 554.839844 284.222656 554.992188 282.589844 554.882812 C 278.472656 554.625 276.269531 552.09375 276.511719 548.273438 C 276.707031 545.203125 278.859375 541.925781 283.050781 542.195312 C 286.964844 542.441406 288.257812 545.589844 288.070312 548.589844 C 288.027344 549.230469 287.914062 549.800781 287.847656 550.09375 M 272.769531 549.175781 C 273.085938 551.132812 273.355469 553.363281 273.605469 554.039062 L 269.75 553.632812 C 269.550781 553.136719 269.277344 551.734375 269.023438 549.632812 C 268.773438 547.484375 268.113281 546.867188 266.558594 546.675781 L 265.449219 546.558594 L 264.761719 553.105469 L 261.027344 552.71875 L 262.75 536.308594 C 263.988281 536.214844 265.78125 536.253906 267.804688 536.46875 C 270.277344 536.726562 271.96875 537.277344 273.054688 538.367188 C 273.984375 539.261719 274.40625 540.480469 274.242188 542.011719 C 274.023438 544.117188 272.363281 545.414062 270.871094 545.785156 L 270.867188 545.855469 C 271.980469 546.449219 272.507812 547.601562 272.769531 549.175781 M 251.84375 547.824219 C 251.617188 549.199219 251.4375 550.601562 251.351562 551.421875 L 248.042969 550.871094 L 248.183594 549.105469 L 248.113281 549.09375 C 247.152344 550.296875 245.574219 550.738281 244.027344 550.480469 C 241.1875 550.011719 239.304688 547.210938 239.921875 543.480469 C 240.566406 539.460938 243.480469 537.523438 246.347656 538 C 247.847656 538.25 248.878906 538.972656 249.285156 539.871094 L 249.335938 539.878906 L 250.414062 533.382812 L 254.136719 534.003906 Z M 236.867188 541.648438 L 235.367188 548.671875 L 231.675781 547.882812 L 233.082031 541.296875 C 233.410156 539.765625 233.097656 538.605469 231.761719 538.324219 C 230.738281 538.101562 229.984375 538.679688 229.574219 539.300781 C 229.421875 539.523438 229.324219 539.859375 229.253906 540.199219 L 227.789062 547.050781 L 224.097656 546.261719 L 225.824219 538.171875 C 226.140625 536.6875 226.355469 535.441406 226.535156 534.359375 L 229.742188 535.046875 L 229.5625 536.734375 L 229.632812 536.75 C 230.285156 536.078125 231.71875 535.1875 233.710938 535.617188 C 236.144531 536.132812 237.613281 538.148438 236.867188 541.648438 M 221.667969 538.292969 L 220.589844 542.402344 C 220.304688 543.507812 220.070312 544.601562 220.042969 545.292969 L 216.75 544.429688 L 216.839844 543.191406 L 216.769531 543.175781 C 215.753906 543.914062 214.417969 544.101562 213.023438 543.738281 C 210.648438 543.117188 209.679688 541.011719 210.175781 539.136719 C 210.972656 536.085938 214.089844 535.359375 218.246094 536.453125 L 218.285156 536.304688 C 218.449219 535.679688 218.34375 534.703125 216.542969 534.230469 C 215.339844 533.917969 213.957031 533.992188 213.070312 534.25 L 213.007812 531.738281 C 213.945312 531.496094 215.710938 531.316406 217.847656 531.875 C 221.769531 532.898438 222.390625 535.527344 221.667969 538.292969 M 203.3125 534.058594 C 203.105469 534.671875 202.859375 535.191406 202.714844 535.460938 L 195.292969 532.980469 C 194.914062 534.527344 196.144531 535.71875 197.816406 536.273438 C 199.042969 536.679688 200.089844 536.84375 201.164062 536.832031 L 200.832031 539.417969 C 199.488281 539.523438 197.976562 539.285156 196.417969 538.765625 C 192.5 537.472656 191.007812 534.46875 192.207031 530.839844 C 193.171875 527.914062 196.082031 525.289062 200.070312 526.605469 C 203.796875 527.835938 204.253906 531.207031 203.3125 534.058594 M 188.953125 525.835938 C 187.09375 525.132812 185.382812 525.996094 184.699219 527.859375 C 183.90625 529.953125 184.875 531.59375 186.597656 532.25 C 187.433594 532.566406 188.132812 532.675781 188.753906 532.644531 L 188.183594 535.402344 C 187.445312 535.46875 186.171875 535.253906 184.824219 534.738281 C 181.15625 533.34375 179.664062 530.203125 181.023438 526.625 C 182.285156 523.304688 185.597656 521.449219 189.824219 523.054688 C 190.753906 523.410156 191.710938 523.960938 192.351562 524.519531 L 190.792969 526.933594 C 190.445312 526.589844 189.878906 526.1875 188.953125 525.835938 M 178.308594 524.226562 L 175.417969 530.800781 L 171.960938 529.285156 L 174.671875 523.121094 C 175.296875 521.6875 175.230469 520.488281 173.976562 519.9375 C 173.023438 519.519531 172.164062 519.929688 171.632812 520.457031 C 171.445312 520.640625 171.277344 520.953125 171.140625 521.269531 L 168.324219 527.683594 L 164.863281 526.167969 L 168.191406 518.59375 C 168.800781 517.203125 169.265625 516.023438 169.65625 515.003906 L 172.660156 516.324219 L 172.140625 517.9375 L 172.207031 517.96875 C 172.984375 517.4375 174.570312 516.859375 176.433594 517.675781 C 178.707031 518.675781 179.746094 520.953125 178.308594 524.226562 M 163.34375 520.058594 L 156.390625 516.472656 C 155.773438 517.949219 156.804688 519.3125 158.378906 520.117188 C 159.527344 520.703125 160.53125 521.023438 161.601562 521.175781 L 160.875 523.683594 C 159.535156 523.585938 158.070312 523.113281 156.613281 522.367188 C 152.941406 520.492188 151.925781 517.289062 153.667969 513.882812 C 155.070312 511.140625 158.347656 508.996094 162.082031 510.90625 C 165.578125 512.691406 165.515625 516.09375 164.144531 518.769531 C 163.851562 519.34375 163.527344 519.816406 163.34375 520.058594 M 144.503906 515.507812 L 150.53125 504.957031 L 153.808594 506.828125 L 147.789062 517.378906 Z M 139.769531 505.464844 C 138.574219 507.355469 139.199219 509.160156 140.75 510.140625 C 141.507812 510.621094 142.175781 510.867188 142.792969 510.960938 L 141.6875 513.550781 C 140.945312 513.464844 139.742188 513 138.523438 512.230469 C 135.203125 510.132812 134.371094 506.757812 136.414062 503.519531 C 138.308594 500.515625 141.921875 499.359375 145.742188 501.773438 C 146.582031 502.304688 147.414062 503.035156 147.925781 503.714844 L 145.921875 505.765625 C 145.652344 505.359375 145.179688 504.855469 144.339844 504.324219 C 142.65625 503.261719 140.808594 503.769531 139.769531 505.464844 M 133.171875 496.601562 C 132.421875 496.066406 131.78125 496.066406 131.4375 496.550781 C 131.085938 497.035156 131.296875 497.550781 132.207031 498.84375 C 133.636719 500.8125 133.710938 502.332031 132.703125 503.785156 C 131.375 505.640625 128.96875 505.96875 126.140625 503.941406 C 124.847656 503.015625 123.914062 501.886719 123.457031 500.953125 L 125.566406 499.160156 C 125.882812 499.910156 126.78125 501.128906 127.691406 501.78125 C 128.617188 502.449219 129.21875 502.417969 129.578125 501.914062 C 129.953125 501.386719 129.824219 500.925781 128.96875 499.734375 C 127.386719 497.59375 127.40625 495.898438 128.253906 494.761719 C 129.582031 492.902344 132.160156 492.636719 134.601562 494.386719 C 135.753906 495.214844 136.5625 496.21875 136.949219 496.957031 L 134.921875 498.679688 C 134.636719 498.136719 134 497.191406 133.171875 496.601562 M 114.988281 495.289062 L 114.96875 495.273438 C 112.238281 492.996094 111.636719 489.453125 114.152344 486.4375 C 116.671875 483.425781 120.261719 483.152344 123.277344 485.667969 C 126.117188 488.042969 126.386719 491.59375 124.027344 494.421875 C 121.191406 497.816406 117.46875 497.355469 114.988281 495.289062 M 110.503906 484.59375 L 105 479.03125 C 103.960938 480.242188 104.519531 481.855469 105.765625 483.105469 C 106.679688 484.023438 107.535156 484.640625 108.503906 485.117188 L 107.039062 487.273438 C 105.792969 486.761719 104.546875 485.863281 103.394531 484.703125 C 100.480469 481.777344 100.507812 478.425781 103.21875 475.722656 C 105.402344 473.550781 109.183594 472.523438 112.144531 475.5 C 114.914062 478.28125 113.800781 481.492188 111.667969 483.613281 C 111.207031 484.070312 110.75 484.421875 110.503906 484.59375 M 91.546875 471.441406 C 89.660156 469.039062 88.898438 466.824219 89.101562 464.707031 C 89.320312 462.605469 90.519531 460.59375 92.453125 459.078125 C 96.847656 455.660156 101.847656 456.882812 105.238281 461.199219 C 106.574219 462.898438 107.269531 464.46875 107.480469 465.34375 L 104.589844 466.605469 C 104.351562 465.625 103.898438 464.558594 102.761719 463.113281 C 100.8125 460.632812 97.917969 459.839844 95.0625 462.082031 C 92.328125 464.226562 92.09375 467.1875 94.015625 469.632812 C 94.535156 470.296875 95.042969 470.785156 95.324219 470.9375 L 98.101562 468.761719 L 96.5 466.730469 L 98.832031 464.902344 L 102.679688 469.808594 L 95.742188 475.253906 C 94.710938 474.582031 92.914062 473.179688 91.546875 471.441406 M 152.117188 501.71875 C 152.6875 500.722656 153.851562 500.386719 154.972656 501.027344 C 156.09375 501.667969 156.351562 502.816406 155.8125 503.824219 C 155.257812 504.796875 154.101562 505.164062 152.957031 504.511719 L 152.9375 504.5 C 151.835938 503.871094 151.566406 502.6875 152.117188 501.71875 M 410.4375 521.5 C 411.664062 521.09375 412.691406 521.671875 413.074219 522.746094 C 413.421875 523.808594 412.925781 524.917969 411.671875 525.328125 L 411.652344 525.335938 C 410.445312 525.730469 409.386719 525.136719 409.039062 524.078125 C 408.679688 522.992188 409.207031 521.902344 410.4375 521.5 M 484.429688 482.292969 C 485.429688 481.472656 486.59375 481.636719 487.339844 482.507812 C 488.050781 483.371094 487.984375 484.585938 486.964844 485.417969 L 486.949219 485.433594 C 485.964844 486.238281 484.765625 486.066406 484.058594 485.203125 C 483.332031 484.320312 483.433594 483.113281 484.429688 482.292969 M 511.847656 462.472656 L 517.695312 464.628906 C 518.386719 464.902344 519.25 465.246094 519.851562 465.515625 L 519.902344 465.460938 C 519.488281 464.929688 518.878906 464.21875 518.429688 463.65625 L 514.574219 458.871094 L 517.023438 455.640625 L 521.683594 462.726562 C 524.480469 467.023438 525.300781 469.113281 525.441406 470.933594 C 525.574219 472.65625 525.070312 474.019531 524.5625 474.851562 L 521.550781 473.566406 C 521.757812 473.128906 521.9375 472.519531 522.023438 471.871094 C 522.132812 471.230469 522.027344 470.34375 521.761719 469.707031 C 521.679688 469.488281 521.582031 469.324219 521.445312 469.21875 C 521.351562 469.140625 521.175781 469.042969 520.859375 468.964844 L 509.3125 465.820312 Z M 435.867188 259.132812 L 409.175781 250.355469 L 407.394531 255.769531 L 431.894531 263.824219 L 430.472656 268.144531 L 405.976562 260.089844 L 403.9375 266.285156 L 431.195312 275.25 L 429.65625 279.921875 L 391.28125 267.304688 L 399.597656 242.027344 L 437.40625 254.457031 Z M 352.949219 237.992188 L 324.914062 236.054688 L 324.523438 241.742188 L 350.25 243.519531 L 349.9375 248.054688 L 324.210938 246.277344 L 323.761719 252.785156 L 352.386719 254.761719 L 352.046875 259.671875 L 311.738281 256.882812 L 313.574219 230.34375 L 353.289062 233.082031 Z M 232.183594 264.625 L 228.003906 238.347656 L 267.308594 232.09375 L 268.082031 236.949219 L 240.332031 241.367188 L 241.230469 247 L 266.699219 242.945312 L 267.410156 247.4375 L 241.941406 251.488281 L 242.96875 257.929688 L 271.308594 253.417969 L 272.078125 258.277344 Z M 181.234375 281.203125 L 171.378906 256.488281 L 182.253906 252.152344 L 192.105469 276.871094 Z M 561.988281 396.003906 C 561.988281 298.980469 449.546875 222.976562 305.996094 222.976562 C 242.574219 222.976562 182.105469 238.207031 135.71875 265.863281 L 134.015625 266.878906 C 134.015625 266.878906 126.363281 255.183594 123.695312 251.101562 C 120.996094 256.445312 92.164062 313.496094 89.464844 318.835938 C 95.441406 318.503906 159.253906 314.949219 165.234375 314.613281 C 162.722656 310.777344 156.207031 300.8125 156.207031 300.8125 L 158.097656 299.714844 C 198.242188 276.398438 250.765625 263.558594 305.996094 263.558594 C 424.78125 263.558594 521.410156 322.972656 521.410156 396.003906 C 521.410156 442.324219 483.128906 484.484375 419.003906 508.792969 L 418.957031 508.667969 C 386.085938 521.171875 347.417969 528.441406 305.996094 528.441406 C 187.214844 528.441406 90.589844 469.027344 90.589844 396.003906 C 90.589844 368.074219 104.796875 342.171875 128.894531 320.789062 L 82.535156 323.371094 L 96.8125 295.113281 C 67.269531 323.339844 50.011719 358.050781 50.011719 396.003906 C 50.011719 493.019531 162.449219 569.019531 305.996094 569.019531 C 363.058594 569.019531 415.15625 556.984375 457.273438 536.425781 L 459.105469 537.8125 L 458.191406 535.960938 C 524.15625 503.433594 561.988281 452.425781 561.988281 396.003906 M 464.453125 426.492188 C 463.046875 427.527344 459.253906 428.757812 449.148438 428.757812 C 435.304688 428.757812 431.191406 427.507812 429.964844 426.757812 C 428.882812 426.09375 427.058594 423.78125 427.058594 415.78125 C 427.050781 415.726562 426.917969 412.144531 426.917969 412.144531 L 405.054688 412.144531 L 405.148438 417.277344 C 405.148438 428.859375 407.992188 436.753906 413.605469 440.703125 C 419.125 444.59375 429.746094 446.484375 446.074219 446.484375 C 464.1875 446.484375 475.671875 444.550781 481.171875 440.582031 C 486.824219 436.5 489.5625 428.011719 489.5625 414.625 C 489.5625 403.660156 487.191406 396.5625 482.324219 392.933594 C 477.617188 389.414062 467.789062 387.308594 452.324219 386.488281 C 436.128906 385.648438 431.796875 384.5 430.65625 383.882812 C 429.710938 383.375 428.117188 381.460938 428.117188 374.382812 C 428.117188 369.910156 429.246094 366.984375 431.472656 365.710938 C 433.1875 364.722656 437.507812 363.550781 448.335938 363.550781 C 457.867188 363.550781 460.964844 364.671875 461.964844 365.34375 C 463.070312 366.09375 464.515625 368.269531 465.011719 374.363281 C 465.003906 374.238281 465.160156 376.382812 465.160156 376.382812 L 465.265625 377.875 L 466.828125 377.8125 L 487.148438 377.8125 L 487.089844 372.550781 C 487.089844 362.125 484.195312 354.945312 478.492188 351.226562 C 472.90625 347.589844 462.605469 345.824219 447.015625 345.824219 C 430.550781 345.824219 419.792969 347.75 414.121094 351.710938 L 414.121094 351.714844 C 408.375 355.734375 405.453125 363.691406 405.453125 375.367188 C 405.453125 386.945312 407.832031 394.359375 412.707031 398.035156 C 417.445312 401.601562 427.722656 403.78125 444.117188 404.699219 L 454.628906 405.332031 C 461.507812 405.710938 464.179688 406.832031 465.203125 407.699219 C 466.171875 408.523438 467.328125 410.59375 467.328125 415.742188 C 467.328125 422.878906 465.769531 425.519531 464.453125 426.492188 M 371.882812 426.492188 C 370.476562 427.527344 366.683594 428.757812 356.578125 428.757812 C 342.726562 428.757812 338.609375 427.507812 337.394531 426.757812 C 336.304688 426.09375 334.476562 423.78125 334.476562 415.78125 C 334.476562 415.726562 334.355469 412.144531 334.355469 412.144531 L 312.476562 412.144531 L 312.582031 417.277344 C 312.582031 428.859375 315.421875 436.753906 321.023438 440.703125 C 326.554688 444.59375 337.179688 446.484375 353.503906 446.484375 C 371.617188 446.484375 383.09375 444.550781 388.597656 440.582031 C 394.242188 436.503906 396.992188 428.011719 396.992188 414.625 C 396.992188 403.660156 394.621094 396.566406 389.761719 392.933594 C 385.035156 389.414062 375.222656 387.308594 359.75 386.488281 C 343.554688 385.648438 339.230469 384.5 338.082031 383.882812 C 337.144531 383.375 335.554688 381.460938 335.554688 374.382812 C 335.554688 369.902344 336.671875 366.984375 338.90625 365.710938 C 340.617188 364.722656 344.941406 363.550781 355.761719 363.550781 C 365.304688 363.550781 368.398438 364.671875 369.394531 365.34375 C 370.503906 366.09375 371.949219 368.269531 372.449219 374.363281 C 372.441406 374.238281 372.59375 376.382812 372.59375 376.382812 L 372.699219 377.875 L 374.265625 377.8125 L 394.578125 377.8125 L 394.519531 372.550781 C 394.519531 362.128906 391.625 354.945312 385.921875 351.226562 C 380.335938 347.589844 370.03125 345.824219 354.441406 345.824219 C 337.976562 345.824219 327.21875 347.75 321.554688 351.714844 C 315.792969 355.734375 312.875 363.691406 312.875 375.367188 C 312.875 386.945312 315.257812 394.359375 320.132812 398.035156 C 324.878906 401.601562 335.144531 403.78125 351.542969 404.699219 L 362.058594 405.332031 C 368.941406 405.710938 371.609375 406.832031 372.636719 407.707031 C 373.609375 408.523438 374.765625 410.59375 374.765625 415.742188 C 374.765625 422.878906 373.199219 425.519531 371.882812 426.492188 M 278.953125 392.015625 C 277.179688 393.859375 273.082031 394.835938 267.125 394.835938 L 241.363281 394.835938 L 241.363281 365.070312 L 268.449219 365.070312 C 275.597656 365.070312 278.335938 366.40625 279.382812 367.523438 C 280.453125 368.679688 281.730469 371.730469 281.730469 379.707031 C 281.730469 387.5 280.226562 390.699219 278.953125 392.015625 M 300.652344 397.113281 C 303.1875 393.265625 304.417969 386.496094 304.417969 376.425781 C 304.417969 365.359375 301.871094 357.53125 296.851562 353.171875 C 291.824219 348.785156 283.101562 346.652344 270.222656 346.652344 L 218.988281 346.652344 L 218.988281 445.65625 L 241.363281 445.65625 L 241.363281 413.257812 L 267.199219 413.257812 C 276.523438 413.257812 280.863281 417.46875 280.863281 426.523438 L 280.863281 445.65625 L 303.253906 445.65625 L 303.253906 422.855469 C 303.253906 412.265625 298.472656 405.910156 289.824219 403.703125 C 294.742188 402.144531 298.691406 400.09375 300.652344 397.113281 M 147.273438 368.15625 C 149.089844 366.5625 154.019531 364.660156 167.175781 364.660156 C 179.378906 364.660156 183.789062 365.757812 185.335938 366.671875 C 186.730469 367.507812 188.472656 369.972656 188.859375 376.992188 L 188.941406 378.503906 L 211.496094 378.503906 L 211.496094 376.90625 C 211.496094 363.824219 208.714844 355.535156 202.996094 351.558594 C 197.449219 347.695312 185.8125 345.824219 167.417969 345.824219 C 153.410156 345.824219 143.707031 347.011719 137.75 349.464844 C 131.65625 351.964844 127.070312 356.84375 124.117188 363.953125 C 121.761719 369.726562 120.613281 382.910156 120.613281 404.257812 C 120.613281 421.285156 123.546875 432.324219 129.582031 438.023438 C 135.609375 443.71875 147.289062 446.484375 165.3125 446.484375 C 184.820312 446.484375 197.140625 444.414062 202.96875 440.152344 C 208.941406 435.800781 211.835938 426.628906 211.835938 412.125 C 211.835938 412.09375 211.464844 391.515625 211.464844 391.515625 L 163.894531 391.515625 L 163.894531 408.132812 L 189.121094 408.132812 C 189.105469 409.246094 189.078125 410.421875 189.078125 410.421875 C 189.078125 419.925781 187.109375 423.441406 185.457031 424.722656 C 183.738281 426.058594 179.085938 427.652344 166.683594 427.652344 C 153.957031 427.652344 149.148438 425.769531 147.347656 424.191406 C 145.578125 422.644531 143.46875 418.457031 143.46875 407.3125 C 143.46875 407.285156 143.28125 395.015625 143.28125 395.015625 L 143.351562 385.441406 C 143.351562 374.011719 145.488281 369.738281 147.273438 368.15625 "/>
</g>
</svg>
